<svg xmlns="http://www.w3.org/2000/svg" width="1024" height="1024" viewBox="0 0 100 100">
  <defs>
    <linearGradient id="frame" x1="14" y1="10" x2="88" y2="92" gradientUnits="userSpaceOnUse">
      <stop offset="0" stop-color="#56616a"/>
      <stop offset="1" stop-color="#151a1f"/>
    </linearGradient>
    <linearGradient id="cell" x1="25" y1="23" x2="71" y2="77" gradientUnits="userSpaceOnUse">
      <stop offset="0" stop-color="#00e5ff"/>
      <stop offset="1" stop-color="#0094d8"/>
    </linearGradient>
    <linearGradient id="lamp" x1="77" y1="26" x2="91" y2="58" gradientUnits="userSpaceOnUse">
      <stop offset="0" stop-color="#ffe27a"/>
      <stop offset="0.48" stop-color="#ffb000"/>
      <stop offset="1" stop-color="#d16c00"/>
    </linearGradient>
  </defs>
  <rect x="8" y="9" width="84" height="82" rx="15" fill="url(#frame)"/>
  <rect x="14" y="15" width="72" height="70" rx="11" fill="#0d1115"/>
  <rect x="19" y="20" width="52" height="60" rx="5" fill="#1f2a2f" stroke="#00cfff" stroke-width="2.2"/>
  <g fill="#263238" stroke="#00bde8" stroke-width="1.2">
    <rect x="23" y="24" width="10" height="10" rx="1.5"/>
    <rect x="36" y="24" width="10" height="10" rx="1.5"/>
    <rect x="49" y="24" width="10" height="10" rx="1.5"/>
    <rect x="23" y="37" width="10" height="10" rx="1.5"/>
    <rect x="49" y="37" width="10" height="10" rx="1.5"/>
    <rect x="62" y="37" width="5" height="10" rx="1.5"/>
    <rect x="23" y="50" width="10" height="10" rx="1.5"/>
    <rect x="36" y="63" width="10" height="10" rx="1.5"/>
    <rect x="62" y="63" width="5" height="10" rx="1.5"/>
  </g>
  <g fill="url(#cell)" stroke="#67f3ff" stroke-width="0.9">
    <rect x="36" y="37" width="10" height="10" rx="1.5"/>
    <rect x="36" y="50" width="10" height="10" rx="1.5"/>
    <rect x="49" y="50" width="10" height="10" rx="1.5"/>
    <rect x="49" y="63" width="10" height="10" rx="1.5"/>
  </g>
  <g>
    <rect x="75" y="29" width="14" height="31" rx="5" fill="url(#lamp)" stroke="#ffdd69" stroke-width="1"/>
    <path d="M76 36h12M76 43h12M76 50h12" stroke="#a95700" stroke-width="1.2" opacity="0.55"/>
    <circle cx="82" cy="44" r="3" fill="#fff2a8" opacity="0.95"/>
    <rect x="74" y="58" width="16" height="10" rx="2" fill="#2f3840"/>
    <rect x="78" y="68" width="8" height="12" rx="3" fill="#20282e"/>
    <rect x="73" y="78" width="18" height="6" rx="2" fill="#3a444d"/>
  </g>
</svg>
